<svg xmlns="http://www.w3.org/2000/svg" viewBox="0 0 362.53 347.95"><title>dd-box</title><polygon points="359.2 211.29 180.43 344.15 3.32 269.65 3.32 128.93 181.71 3.74 359.2 71.96 359.2 211.29" style="fill:#fff"/><path d="M295.79,595l-1.75-.74L114.9,518.9V374.25L296.15,247l181.28,69.68V460l-1.34,1ZM121.55,514.48L294.87,587.4,470.78,456.66V321.29L297.07,254.52,121.55,377.71V514.48Z" transform="translate(-114.9 -247.05)" style="fill:#010101"/><rect x="177.94" y="191.64" width="6.65" height="151.51" style="fill:#010101"/><path d="M473.43,493.89" transform="translate(-114.9 -247.05)" style="fill:#fff;stroke:#010101;stroke-miterlimit:10;stroke-width:24px"/><polygon points="181.72 195.34 3.18 131.06 5.43 124.81 180.8 187.94 358.33 68.2 362.04 73.72 181.72 195.34" style="fill:#010101"/><path d="M296.85,420.62l-143.8-51.77,144-101,144.21,55.43Zm-129.5-53.69,128.58,46.29,131-88.37L298,275.28Z" transform="translate(-114.9 -247.05)" style="fill:#010101"/><polygon points="160.86 318.34 24.71 261.01 24.71 152.75 160.86 201.76 160.86 318.34" style="fill:#fff"/><path d="M279.09,570.39l-142.8-60.13V395.06l142.8,51.41V570.39ZM142.93,505.85l129.51,54.53V451.14L142.93,404.52V505.85Z" transform="translate(-114.9 -247.05)" style="fill:#010101"/><path d="M314.82,563.38V440.7l1.47-1,140.15-94.53v113l-1.34,1Zm6.65-119.14V550.16l128.32-95.29V357.69Z" transform="translate(-114.9 -247.05)" style="fill:#010101"/><line x1="45.3" y1="158.32" x2="44.74" y2="269.41" style="fill:#fff"/><rect x="104.38" y="457.58" width="111.09" height="6.65" transform="translate(-416.67 371.5) rotate(-89.72)" style="fill:#010101"/><line x1="71.41" y1="169.39" x2="70.86" y2="280.49" style="fill:#fff"/><rect x="130.49" y="468.66" width="111.09" height="6.65" transform="translate(-401.77 408.63) rotate(-89.72)" style="fill:#010101"/><line x1="99.71" y1="180.83" x2="99.15" y2="291.92" style="fill:#fff"/><rect x="158.79" y="480.1" width="111.09" height="6.65" transform="translate(-385.05 448.31) rotate(-89.72)" style="fill:#010101"/><line x1="131.5" y1="192.75" x2="130.98" y2="304.66" style="fill:#fff"/><rect x="190.19" y="492.43" width="111.91" height="6.65" transform="matrix(0, -1, 1, 0, -365.65, 492.55)" style="fill:#010101"/><line x1="228.55" y1="179.73" x2="228.02" y2="291.65" style="fill:#fff"/><rect x="287.23" y="479.41" width="111.91" height="6.65" transform="translate(-256.04 576.64) rotate(-89.73)" style="fill:#010101"/><line x1="257.3" y1="160.68" x2="256.77" y2="272.59" style="fill:#fff"/><rect x="315.98" y="460.35" width="111.91" height="6.65" transform="translate(-208.36 586.41) rotate(-89.73)" style="fill:#010101"/><line x1="286.77" y1="139.07" x2="286.25" y2="250.98" style="fill:#fff"/><rect x="345.45" y="438.74" width="111.91" height="6.65" transform="translate(-157.42 594.38) rotate(-89.73)" style="fill:#010101"/><line x1="313.79" y1="119.06" x2="313.27" y2="230.98" style="fill:#fff"/><rect x="372.48" y="418.74" width="111.91" height="6.65" transform="translate(-110.52 601.49) rotate(-89.73)" style="fill:#010101"/><polygon points="24.71 174.46 142.5 310.61 161.58 318.34 161.58 297.45 45.3 160.16 25.04 152.86 24.71 174.46" style="fill:#fff"/><path d="M279.8,570.32l-24.39-9.88L136.27,422.73l0.42-27.52,25.48,9.18L279.8,543.27v27ZM259.4,554.88l13.76,5.58V545.71L158.24,410l-15-5.42L143,420.29Z" transform="translate(-114.9 -247.05)" style="fill:#010101"/><polygon points="319.19 117.22 203.65 291.35 203.65 309.42 228.34 291.35 338.21 125.03 337.47 104.39 319.19 117.22" style="fill:#fff"/><path d="M315.22,563V537.4L431.67,361.9l23.81-16.7,1,27.82L345.69,540.73Zm6.65-23.62v10.52l18.93-13.85,109-164.94-0.48-13.46-12.75,9Z" transform="translate(-114.9 -247.05)" style="fill:#010101"/><polygon points="103.59 87.49 113.94 62.01 119.21 97.02 142.5 81.95 142.5 117.76 157 103 170.28 121.71 191.23 100.79 206.19 117.76 209.01 93.59 235.54 97.4 235.67 70.88 254.26 74.2 249.99 107.99 229.87 131.3 173.03 137.91 117.55 127.97 103.59 87.49" style="fill:none"/><polygon points="169.85 127.39 156.59 108.72 139.18 126.44 139.18 88.62 116.68 103.17 112.46 74.73 106.68 89.28 100.5 86.82 115.41 49.3 121.74 91.98 145.83 76.4 145.83 110.19 157.41 98.4 170.72 117.13 191.38 96.49 203.75 110.52 206.1 90.37 231.81 94.06 228.02 56.54 298.15 89.12 295.35 95.15 235.81 67.49 239.28 101.85 211.92 97.92 208.63 126.1 191.07 106.19 169.85 127.39" style="fill:#231f20"/><line x1="73.12" y1="99.4" x2="209.22" y2="151.72" style="fill:#fff"/><rect x="252.75" y="299.7" width="6.65" height="145.81" transform="translate(-298.5 230.91) rotate(-68.98)" style="fill:#010101"/><line x1="208.42" y1="99.2" x2="255.41" y2="117.32" style="fill:#fff"/><rect x="343.49" y="330.12" width="6.65" height="50.36" transform="translate(-224.38 304.02) rotate(-68.91)" style="fill:#010101"/></svg>
