 <svg id="fireball" data-name="fireball" xmlns="http://www.w3.org/2000/svg" viewBox="0 0 93 68"><title>fireball_main</title><path d="M100.18,65.19a1.83,1.83,0,0,0-1.49-1,20.92,20.92,0,0,1-6.27-1.11A24.65,24.65,0,0,0,83,62a6.3,6.3,0,0,1-5.77-2.46c-1-1.37-1.25-3.05-.59-4,0.86-1.37,3.56-1.74,7-1.06,9.5,2,17.78-4.84,21.93-11.36,2.16-3.32,2.8-5.65,1.86-6.94a2.12,2.12,0,0,0-2.47-.67l-0.9.29c-2.79.93-5.44,1.88-14.36-3.36-6.5-3.79-11-3-14.54-2.24-2.59.53-4.65,0.93-7.26-.26a2.71,2.71,0,0,1-.71-0.47c0.2-.4,1.1-1.55,5-3.44a33.13,33.13,0,0,1,5.34-2.18,1.76,1.76,0,0,0,1.18-1.61,1.82,1.82,0,0,0-1.18-1.61A26.75,26.75,0,0,1,74,19.07c-4.28-1.95-6.87-2.78-14.09.9-3.42,1.76-5.68,1.56-8.63,1.24-4.16-.43-9.15-1-19,3-12.44,5-19.74,18.06-17.08,30.49a39.58,39.58,0,0,0,6.69,15.06h0A38.76,38.76,0,0,0,44.4,84.49C55.77,87.31,64,83.72,70,81.07c3.68-1.58,6.59-2.85,8.95-2.34,10.54,2.2,20.55-11.21,21-11.79A1.61,1.61,0,0,0,100.18,65.19Z" transform="translate(-14.6 -17.41)" style="fill:#cf3127"/><path d="M79.78,75.42c-3.47-.68-7,0.78-11,2.52-5.91,2.59-13.27,5.75-23.54,3.24A35.17,35.17,0,0,1,18.56,54c-2.34-10.81,4.07-22.2,14.9-26.53,9.08-3.68,13.52-3.21,17.45-2.74,3.24,0.36,6.19.67,10.62-1.58,6.05-3.07,7.61-2.48,11-.88C69.08,23.76,64.79,26,64,28.56a3.17,3.17,0,0,0,.49,2.87,5.91,5.91,0,0,0,2.18,1.62c3.6,1.7,6.49,1.07,9.35.58,3.47-.68,6.77-1.24,12.16,1.88,8.47,5,12.24,5,15.76,4.08a25.88,25.88,0,0,1-6.69,8.13c-2.84,2.21-7.31,4.74-12.72,3.62-6.92-1.5-9.67,1-10.69,2.5-1.48,2.2-1.18,5.33.71,7.91a9.58,9.58,0,0,0,8.92,3.88,19.62,19.62,0,0,1,8.23.91c1.24,0.33,2.41.59,3.73,0.86C92.15,70.82,85.81,76.71,79.78,75.42Z" transform="translate(-14.6 -17.41)" style="fill:#ffd816"/></svg>
