<svg id="ddhead" xmlns="http://www.w3.org/2000/svg" viewBox="0 0 268.62 299.9"><title>dd-head</title><path d="M209.54,105.46s-12.78-14.6,15.93-51.89c34.08-44.26,65.78-.18,65.78-0.18S266,43.11,248.1,71.67,259.86,117,209.54,105.46Z" transform="translate(-87.07 -30.53)" style="fill:#fff"/><path d="M232.34,112.47c-5.14,0-12.53-1.24-23.55-3.77l-1-.24-0.71-.81c-0.42-.48-4.07-4.93-3.62-14.31,0.55-11.72,7.09-25.78,19.42-41.8,10.74-13.95,22.48-21,34.91-21h0.54c20.63,0.34,35.06,20.07,35.66,20.91l6.73,9.37L290,56.47a30.11,30.11,0,0,0-13.53-1.31c-10.17,1.29-18.77,7.44-25.55,18.28-6.14,9.81-6.22,17.89-6.28,24.37,0,5.13-.09,9.56-3.66,12.38C239.06,111.7,236.4,112.47,232.34,112.47Zm-20.75-9.95c7.11,1.62,22.17,4.89,25.27,2.45,1.07-.85,1.1-3.8,1.13-7.22,0.06-6.54.16-16.43,7.29-27.84C255.21,54,267.46,49.52,276,48.52a37.82,37.82,0,0,1,6.12-.21c-0.75-.7-1.56-1.41-2.43-2.12-4.91-4-12.63-8.87-21.54-9-10.39-.16-20.51,6-30,18.42-13.89,18-17.45,30.19-18,37.21C209.71,98.08,210.88,101.17,211.59,102.52Z" transform="translate(-87.07 -30.53)" style="fill:#010101"/><path d="M210.66,77.91S230.15,67,240.85,86.25" transform="translate(-87.07 -30.53)" style="fill:#fff"/><path d="M237.94,87.87c-2.68-4.82-6.2-7.88-10.45-9.09-7.58-2.15-15.13,2-15.21,2L209,75c0.41-.23,10.07-5.52,20.26-2.63,6,1.71,10.87,5.83,14.45,12.25Z" transform="translate(-87.07 -30.53)" style="fill:#010101"/><path d="M227.24,51.35s24.54-4.85,27.08,12.14" transform="translate(-87.07 -30.53)" style="fill:#fff"/><path d="M251,64a9.8,9.8,0,0,0-4.1-7c-5.61-4-15.65-3.08-19-2.41l-1.29-6.52a46.63,46.63,0,0,1,8.47-.7c6.53,0,11.81,1.46,15.69,4.2A16.34,16.34,0,0,1,257.61,63Z" transform="translate(-87.07 -30.53)" style="fill:#010101"/><path d="M254.32,33.86s14.72,9,13.06,20.32" transform="translate(-87.07 -30.53)" style="fill:#fff"/><path d="M270.67,54.66l-6.58-1c1.31-8.92-11.37-16.92-11.5-17L256.05,31C256.73,31.43,272.62,41.3,270.67,54.66Z" transform="translate(-87.07 -30.53)" style="fill:#010101"/><path d="M216.71,97s-20.82-5.77-27.87-2.44-27,8.78-21.18,21c0,0-1.6,6.73,6.69,8S216.71,97,216.71,97Z" transform="translate(-87.07 -30.53)" style="fill:#fff"/><path d="M174.93,126.93a7.27,7.27,0,0,1-1.07-.08c-3.68-.54-6.38-2.06-8-4.5a9.85,9.85,0,0,1-1.58-6.26,11.72,11.72,0,0,1-.18-8.86c2.83-7.27,12.5-11.18,19.56-14,1.51-.61,2.82-1.14,3.81-1.61,3.6-1.7,9.67-1.79,18.55-.29,6.18,1,11.41,2.48,11.62,2.54l6.2,1.72-5,4.06c-0.09.07-8.72,7.09-18.25,13.85C184.56,124.83,178.25,126.93,174.93,126.93Zm-4-10.59a3.37,3.37,0,0,0,.45,2.31c0.72,1,2.29,1.44,3.48,1.62,0.4,0.05,4.42.18,21.9-12.24,4.74-3.37,9.26-6.8,12.56-9.37-7.46-1.55-15.92-2.54-19-1.07-1.16.54-2.54,1.1-4.14,1.75-5.6,2.27-14.07,5.69-15.86,10.29a5.34,5.34,0,0,0,.4,4.53l0.53,1.12Zm44.93-16.1h0Z" transform="translate(-87.07 -30.53)" style="fill:#010101"/><polygon points="78.35 88.62 46.34 107.06 10.42 103.32 7.93 124.44 2.43 138.1 5.93 153.41 15.16 155.23 24.09 163.47 33.6 166.95 41.38 146.8 55.13 163.8 73.26 145.53 83.6 165.22 100.59 146.8 132.26 135.47 128.71 159.58 96.26 189.05 67.15 239.16 63.58 269.8 87.55 289.26 138.6 299.8 177.93 271.47 174.93 249.8 165.17 223.13 170.14 193.47 184.6 174.47 198.66 144.04 196.6 120.01 190.25 95.13 163.78 72.13 126.04 66.7 116.85 75.49 101.35 86.67 78.35 88.62" style="fill:#fff"/><path d="M244.19,77" transform="translate(-87.07 -30.53)" style="fill:#fff"/><path d="M197.71,320.18l-2.61,7.6c6.45,1.3,22.31,4.38,26.65,4.38a18.08,18.08,0,0,0,3.72-.32c7.1-1.54,21.35-12,25.55-15.19,4.71-3.56,9.05-7.15,12.24-10.1,5.11-4.74,6.18-6.8,6.25-8.57,0.17-4.22,0-10,0-10.2l0-1-0.58-.82a80.56,80.56,0,0,1-10.69-24.53,59.76,59.76,0,0,1-1.27-23.63,52.21,52.21,0,0,1,11.8-25.48c10.36-12.44,16.44-24.42,18.6-36.64,1.84-10.42.45-18.76-.67-25.46-0.62-3.71-1.16-6.92-.83-9.15,0.85-5.82-3.14-13.76-12.19-24.27a165,165,0,0,0-13-13.36l-0.42-.38-0.52-.22c-0.53-.22-13-5.41-23-7.65-17.78-4-29.69.69-36.55,5.32a36.52,36.52,0,0,0-10.26,10.36c-2.64,1-10.25,3.77-17.06,3.77-5.51,0-13.67,4.51-22.31,9.29-7,3.86-14.91,8.24-19.09,8.59-3.53.29-9.84-.3-15.93-0.88-13.92-1.32-19.86-1.6-22.62.91a4.39,4.39,0,0,0-1.47,3.28c0,1.46.11,3.57,0.24,6,0.17,3.26.49,9.19,0.2,11a19.1,19.1,0,0,0-1.82,4.72c-0.73,2.5-1.42,5.42-1.94,8.23-1.56,8.42-1.4,14.26.47,17.37A11.55,11.55,0,0,0,94,188l16.27-2.84c1.25-.47,3-1.1,3.49-1.21,1.4-.12,3.83-0.52,6.64-1,3.61-.59,10.27-1.68,12-1.53,0.91,0.32,3.05.7,12.91-.61a128.93,128.93,0,0,0,14.76-2.7c2.6-.74,9.72.2,14.92,0.89s9.87,1.3,12.55.86c2.52-.42,7.22-2.46,14.67-5.76,4.46-2,11-4.9,13.22-5.39a59.11,59.11,0,0,1,7.6,5.81l4.38-5c-2.15-1.88-7.46-6.36-10.28-7.3C215,161.52,213,162,199.48,168c-5,2.21-11.2,5-13.07,5.28-1.7.28-6.42-.34-10.59-0.89-6.73-.89-13.69-1.81-17.62-0.69-5.62,1.61-21.23,3.66-23.87,3.34-2-.64-5.5-0.23-15,1.33-2.6.43-5.06,0.83-6.19,0.92a23,23,0,0,0-5.19,1.6,51.53,51.53,0,0,1-7.57,2.41l-2,1a4.75,4.75,0,0,1-4.09-2.6c-0.53-.88-1.09-4.39.23-11.92a61.59,61.59,0,0,1,2.91-11.26c1.43-1.79,1.43-5,.9-15.05-0.08-1.48-.15-2.9-0.2-4.07,3.24-.44,11.56.35,16.78,0.84,6.68,0.63,13,1.23,17.11.88,5.6-.47,13.45-4.8,21.76-9.4,7.17-4,15.3-8.46,19.1-8.46,9.72,0,20.23-4.52,20.67-4.71l1.08-.47,0.54-1a28.79,28.79,0,0,1,8.75-9c8.41-5.67,19-7.14,31.38-4.34,8.29,1.86,18.88,6.08,21.35,7.09a162.13,162.13,0,0,1,12,12.37c10.36,12,10.9,17.29,10.66,19-0.47,3.26.14,6.94,0.85,11.2,1,6.2,2.32,13.91.68,23.2-2,11-7.57,22-17.16,33.54a58.75,58.75,0,0,0-13.28,28.83,66.5,66.5,0,0,0,1.45,26.34,87.52,87.52,0,0,0,11.08,25.7c0,1.71.09,5.39,0,8.34-1.08,1.75-6.94,7.43-17,14.94-9.52,7.09-18.28,12.37-21.8,13.14-2.7.58-17.48-3.35-26.35-5.16" transform="translate(-87.07 -30.53)" style="fill:#010101"/><path d="M97.49,156.41h0Z" transform="translate(-87.07 -30.53)" style="fill:#010101"/><path d="M113.72,183.94h0Z" transform="translate(-87.07 -30.53)" style="fill:#f04a23"/><path d="M215.78,168.64" transform="translate(-87.07 -30.53)" style="fill:#f04a23"/><path d="M197.71,320.18c-3.92-13.68,1.73-25.55,7.71-38.09,7.11-14.92,14.47-30.35,5.34-49.12-6.17-12.69-13.11-19.42-20.64-20-8.72-.69-14.34,7.18-14.57,7.52,0.38,1.41-.45,7-0.59,8.54-0.18,2.09-3.7,7.29-7.09,12.31-9.56,14.13-24,35.49-19.45,59.23l0.21,1.1,0.83,0.75c3,2.68,18.08,16.16,22.11,18.32,2.08,1.11,12.31,4.32,23.52,7.05Zm-42.95-22c-3.39-20.64,9.82-40.17,18.62-53.17,4.57-6.76,9.82-10,8.21-13.46-2.74-5.91,8-12,8-12,4.93,0.41,10.17,6,15.15,16.29,7.72,15.89,1.37,29.23-5.37,43.35-6.51,13.66-11.77,25.77-8.67,40.56-8.51-2.25-14.93-4.34-16-4.93C172.26,313.55,161.53,304.27,154.76,298.22Z" transform="translate(-87.07 -30.53)" style="fill:#010101"/><path d="M177.24,274.34a5.32,5.32,0,0,1-3.16-1.12c-3.19-2.36-5.84-8.79-7.26-14-2.74-10.1-1-14.81.27-16.71l5.53,3.69c-0.7,1.05-1.11,5,.66,11.41a32.83,32.83,0,0,0,3.93,9.32c2.21-1.71,6.92-4.3,18.12-8.76,7.95-3.16,15.53-5.79,15.61-5.82l2.17,6.28c-17.91,6.2-30.69,12.05-32.26,13.92A4.62,4.62,0,0,1,177.24,274.34Z" transform="translate(-87.07 -30.53)" style="fill:#010101"/><path d="M165.23,307.5a5.47,5.47,0,0,1-3.26-1.18c-3.52-2.6-7-10.08-8.86-15.68-2-6-3.84-14.11-.94-18.45l5.53,3.69c-0.36.55-.77,2.84,0.3,7.63,1.61,7.22,5.1,14.14,7.1,16.62,1.88-1.52,6.13-4.24,16.67-9.16,7.29-3.4,14.22-6.28,14.28-6.31l2.55,6.14c-12.79,5.31-27.83,12.54-29.81,15A4.6,4.6,0,0,1,165.23,307.5Z" transform="translate(-87.07 -30.53)" style="fill:#010101"/><path d="M119.39,200.57a5.86,5.86,0,0,1-1.61-.23c-6.64-1.9-14.11-12.47-15.54-14.57l5.49-3.74h0c2.85,4.17,8.1,10.33,11.36,11.74,0.44-.66,1.35-2.51,2.06-7.18a67.29,67.29,0,0,0,.66-6.92l6.64,0.22a73.28,73.28,0,0,1-.75,7.84c-1,6.25-2.53,10-4.94,11.74A5.68,5.68,0,0,1,119.39,200.57Z" transform="translate(-87.07 -30.53)" style="fill:#010101"/><path d="M142.94,197.28c-3.81,0-7-3.22-9.49-9.59a56,56,0,0,1-2.46-8.35l6.52-1.3-3.26.65,3.26-.65a50.59,50.59,0,0,0,1.92,6.68c1.65,4.44,3.12,5.78,3.55,5.92,0.2-.06,2.16-0.81,5.41-7.09a70.81,70.81,0,0,0,3.41-7.8l6.27,2.22a76.7,76.7,0,0,1-3.87,8.82c-3.59,6.88-7,10.21-10.74,10.49Z" transform="translate(-87.07 -30.53)" style="fill:#010101"/><path d="M171.25,197.48a4.38,4.38,0,0,1-2.55-.81c-1.48-1.05-3.36-3.29-6-11.93-1.37-4.43-2.31-8.5-2.35-8.68l6.48-1.49c1.42,6.18,3.45,12.45,4.88,15.3,2-2.43,5.35-8.18,8-14l6,2.79c-0.08.17-1.91,4.12-4.25,8.27-4.66,8.26-7.18,9.88-9,10.37A4.77,4.77,0,0,1,171.25,197.48Z" transform="translate(-87.07 -30.53)" style="fill:#010101"/><path d="M150.06,155.13c-4.14-7.46-6-9.51-11.94-10.83-3.4-.76-8.16,6.5-9.95,10.56l-6.08-2.68a42.79,42.79,0,0,1,4.43-7.51c2.86-3.82,7.45-8.1,13-6.86,9,2,12.18,6.66,16.31,14.09Z" transform="translate(-87.07 -30.53)" style="fill:#010101"/><rect x="134.55" y="151.65" width="6.5" height="6.65" transform="translate(-141.83 47.46) rotate(-26.57)" style="fill:#010101"/><path d="M111.16,185.94" transform="translate(-87.07 -30.53)" style="fill:#010101"/><path d="M217.06,138.89a23.63,23.63,0,0,1-7-1.14,34.88,34.88,0,0,0-6.92-1.35c-3.23,1.37-6.38,1.67-9.3-.19-3.42-2.18-7.25-6.64-6.07-15.53a33.13,33.13,0,0,1,2.59-8.92l6,2.85a26.62,26.62,0,0,0-2,7.08c-0.55,4.34.46,7.25,3.07,8.92,2,1.29,7.36-2.63,11.65-5.78s8.47-6.22,13-7.81c5.85-2.06,10.89-1,15,3.14l0.33,0.33,0.22,0.41a10.39,10.39,0,0,1,.37,8.74c-1.6,3.68-5.36,6.3-11.19,7.78A39.91,39.91,0,0,1,217.06,138.89Zm-5.49-7.63,0.32,0.09c3.39,0.94,5.62,1.56,13.28-.38,3.58-.91,6-2.31,6.7-3.93a3.59,3.59,0,0,0,.06-2.6c-2.14-1.93-4.46-2.26-7.64-1.14-3.58,1.26-7.48,4.13-11.25,6.9Z" transform="translate(-87.07 -30.53)" style="fill:#010101"/><path d="M240.78,108.58S247,92.52,290.54,74.66c51.68-21.21,57,32.82,57,32.82s-16.71-21.57-46.5-5.82S279,153.18,240.78,108.58Z" transform="translate(-87.07 -30.53)" style="fill:#fff"/><path d="M268,133.51c-7.23,0-15.86-6.63-29.69-22.76L237,109.24l0.72-1.85c0.19-.49,2.06-5,9.44-11.54,9.57-8.55,23.75-16.71,42.16-24.26,16.52-6.78,30.38-6.92,41.2-.41,17.68,10.64,20.27,34.95,20.37,36L352,118.63l-7.07-9.12a30.11,30.11,0,0,0-11-7.92c-9.45-4-20-3-31.27,3-9.15,4.84-14.66,11.88-19.09,17.54-4.71,6-8.78,11.22-15.29,11.37H268Zm-23.12-25.32c7.4,8.5,17.16,18.68,23.12,18.68h0.12c3.21-.07,5.84-3.23,10.21-8.82,4.82-6.16,10.81-13.82,21.22-19.32C316,90,328.91,92.2,336.78,95.61a37.72,37.72,0,0,1,5.4,2.88c-0.3-1-.65-2-1-3.05-2.23-6-6.48-14-14.12-18.59-8.92-5.35-20.77-5.05-35.23.88C258.52,91.39,247.75,103.87,244.83,108.18Z" transform="translate(-87.07 -30.53)" style="fill:#010101"/><path d="M280.86,118.81c-7.73-2.1-17.69-6.86-21.24-17.64a24.48,24.48,0,0,1-.78-12.34l6.46,1.56-3.23-.78,3.24,0.76a18,18,0,0,0,.71,9c2.18,6.26,7.76,10.65,16.58,13Z" transform="translate(-87.07 -30.53)" style="fill:#010101"/><path d="M294.59,107.82c-6.94-2.52-11.72-6.62-14.21-12.2-4-9.06-.31-18.56-0.15-19l6.17,2.47c0,0.07-2.84,7.37.07,13.83,1.73,3.84,5.23,6.74,10.39,8.61Z" transform="translate(-87.07 -30.53)" style="fill:#010101"/><path d="M312.85,99.72c-5.09-4.58-7.77-9.76-8-15.4-0.3-9.09,6.15-15.83,6.43-16.11l4.77,4.63c0,0.05-4.79,5.07-4.56,11.31,0.14,3.74,2.08,7.32,5.76,10.63Z" transform="translate(-87.07 -30.53)" style="fill:#010101"/><path d="M226,196.94a3.32,3.32,0,0,1-.84-6.54c3.75-1,6.55-2.84,9.52-4.8a35.53,35.53,0,0,1,8.91-4.71c2.24-.71,2.54-4.84,2.7-10.17a44.25,44.25,0,0,1,.51-6.62c-0.22-.48-1.72-3-10.52-7.66-5.39-2.86-10.64-5-10.7-5a3.32,3.32,0,1,1,2.5-6.16,135.21,135.21,0,0,1,12.44,5.93c9.74,5.34,13.7,9.66,12.83,14a38.25,38.25,0,0,0-.43,5.73c-0.18,6-.42,14.12-7.33,16.31a30,30,0,0,0-7.25,3.92c-3.14,2.07-6.69,4.42-11.5,5.69A3.33,3.33,0,0,1,226,196.94Zm20.83-32.76h0Z" transform="translate(-87.07 -30.53)" style="fill:#010101"/></svg>  
