<svg id="ddjaw" xmlns="http://www.w3.org/2000/svg" viewBox="0 0 129.92 59.74"><title>dd-jaw</title><polygon points="70.41 49.78 79.03 55.96 108.17 49.27 126.31 7.76 118.23 3.73 91.68 14.95 66.09 14.63 6.01 26.25 6.56 46.74 14.74 53.27 41.55 46.05 70.41 49.78" style="fill:#fff"/><path d="M113.82,186.65h0Zm101.62-18-46.17,48a17,17,0,0,0-5.1-3.21c-2.36-.83-13.44-1.5-37.48-0.85-1.33,0-3.68,1.38-5.74,2.57-3.82,2.19-8.16,4.68-12.21,2.81-5.35-2.47-8.8-8.36-10.28-17.51-3.89-7.26,2-16.07,2-16.07a51.54,51.54,0,0,0,7.5-2.61,23,23,0,0,1,5.14-1.74c1.12-.12,3.57-0.59,6.16-1.09,9.46-1.81,13-2.32,15-1.73,2.65,0.25,18.19-2.22,23.77-4,3.89-1.23,10.88-.49,17.63.22,4.18,0.44,8.91.94,10.61,0.61,1.86-.36,8-3.28,12.92-5.63,13.4-6.38,15.38-6.91,17.45-6.28,2.85,0.86,8.27,5.2,10.47,7l-4.24,5.12a59.11,59.11,0,0,0-7.75-5.6c-2.16.55-8.67,3.65-13.07,5.75-7.36,3.5-12,5.66-14.51,6.15-2.67.52-7.25,0-12.57-.52s-12.36-1.3-14.94-.49a128.93,128.93,0,0,1-14.68,3.09c-9.82,1.58-12,1.26-12.89,1-1.7-.1-8.32,1.17-11.92,1.85-2.79.53-5.21,1-6.61,1.16-0.53.12-2.22,0.81-3.46,1.31a10.71,10.71,0,0,0-5.61,10c0.77,5.88,2.64,12.15,6.71,14,0.94,0.43,4.31-1.5,6.12-2.54,2.88-1.65,5.87-3.36,8.87-3.44,22.46-.6,35.87-0.19,39.88,1.23a24.48,24.48,0,0,1,8.84,5.94s22.46,0.4,30.06-1.91c4.66-1.42,3.53,2.56-5.75,6.07-5.87,2.22-21,4.4-21,4.4S171,218,169.27,216.66Zm2.72-25h0Z" transform="translate(-97.12 -161.95)" style="fill:#010101"/></svg>
