<?xml version="1.0" standalone="no"?>
<!DOCTYPE svg PUBLIC "-//W3C//DTD SVG 20010904//EN"
 "http://www.w3.org/TR/2001/REC-SVG-20010904/DTD/svg10.dtd">
<svg version="1.0" xmlns="http://www.w3.org/2000/svg"
 width="1181.000000pt" height="1181.000000pt" viewBox="0 0 1181.000000 1181.000000"
 preserveAspectRatio="xMidYMid meet">
<metadata>
Created by potrace 1.11, written by Peter Selinger 2001-2013
</metadata>
<g transform="translate(0.000000,1181.000000) scale(0.100000,-0.100000)"
fill="#000000" stroke="none">
<path d="M0 5905 l0 -5905 5905 0 5905 0 0 5905 0 5905 -5905 0 -5905 0 0
-5905z m8352 2095 l1678 0 0 -2165 0 -2165 -1775 0 -1775 0 0 1380 0 1380 590
0 590 0 0 -790 0 -790 590 0 590 0 0 985 0 985 -1380 0 -1380 0 0 -1575 0
-1575 -1775 0 -1775 0 0 1380 0 1380 590 0 590 0 0 -790 0 -790 595 0 595 0 0
985 0 985 -1383 0 -1382 0 -590 590 -590 590 1975 3 c1086 2 2373 2 2859 0
486 -1 1640 -3 2563 -3z"/>
</g>
</svg>
