<svg id="Layer_1" data-name="Layer 1" xmlns="http://www.w3.org/2000/svg" viewBox="0 0 437.01 626.72"><defs><style>.cls-1,.cls-3{fill:#fff;}.cls-2{fill:#010101;}.cls-3,.cls-4{stroke:#010101;stroke-miterlimit:10;stroke-width:24px;}.cls-4{fill:none;}.cls-5{fill:#231f20;}</style></defs><title>dragondrop-svg</title><polygon class="cls-1" points="433 461.98 217.5 622.14 4.01 532.33 4.01 362.7 219.04 211.79 433 294.02 433 461.98"/><path class="cls-2" d="M218.66,626.72l-2.11-.89L0.61,535V360.62L219.1,207.28l218.52,84V464l-1.62,1.2Zm-210-97.06,208.93,87.9L429.6,460V296.78l-209.4-80.48L8.62,364.79V529.66Z" transform="translate(-0.61)"/><rect class="cls-2" x="213.31" y="439.5" width="8.01" height="182.64"/><path class="cls-3" d="M431.61,506" transform="translate(-0.61)"/><polygon class="cls-2" points="217.88 443.95 2.65 366.47 5.36 358.93 216.76 435.04 430.76 290.7 435.24 297.35 217.88 443.95"/><path class="cls-2" d="M218.76,417.73L45.41,355.32,219,233.51l173.84,66.82ZM62.65,353l155,55.8L375.58,302.29,220.08,242.52Z" transform="translate(-0.61)"/><polygon class="cls-1" points="192.73 592.23 28.6 523.12 28.6 392.61 192.73 451.7 192.73 592.23"/><path class="cls-2" d="M197.34,598.26L25.2,525.78V386.91l172.14,62V598.26ZM33.22,520.46l156.11,65.73V454.52L33.22,398.31V520.46Z" transform="translate(-0.61)"/><path class="cls-2" d="M240.41,589.81V441.93l1.77-1.19,168.95-114V463l-1.62,1.2Zm8-143.61V573.88L403.11,459V341.86Z" transform="translate(-0.61)"/><line class="cls-1" x1="53.42" y1="399.33" x2="52.75" y2="533.24"/><rect class="cls-2" x="-13.26" y="462.28" width="133.92" height="8.01" transform="translate(-413.46 517.67) rotate(-89.72)"/><line class="cls-1" x1="84.9" y1="412.68" x2="84.23" y2="546.6"/><rect class="cls-2" x="18.22" y="475.63" width="133.92" height="8.01" transform="translate(-395.49 562.43) rotate(-89.72)"/><line class="cls-1" x1="119.01" y1="426.47" x2="118.34" y2="560.38"/><rect class="cls-2" x="52.33" y="489.42" width="133.92" height="8.01" transform="translate(-375.33 610.26) rotate(-89.72)"/><line class="cls-1" x1="157.33" y1="440.84" x2="156.7" y2="575.74"/><rect class="cls-2" x="90.18" y="504.28" width="134.9" height="8.01" transform="translate(-352 663.56) rotate(-89.73)"/><line class="cls-1" x1="274.32" y1="425.15" x2="273.69" y2="560.05"/><rect class="cls-2" x="207.16" y="488.59" width="134.9" height="8.01" transform="translate(-219.86 764.92) rotate(-89.73)"/><line class="cls-1" x1="308.97" y1="402.17" x2="308.34" y2="537.07"/><rect class="cls-2" x="241.82" y="465.62" width="134.9" height="8.01" transform="translate(-162.39 776.71) rotate(-89.73)"/><line class="cls-1" x1="344.5" y1="376.13" x2="343.87" y2="511.03"/><rect class="cls-2" x="277.34" y="439.57" width="134.9" height="8.01" transform="translate(-100.98 786.31) rotate(-89.73)"/><line class="cls-1" x1="377.08" y1="352.01" x2="376.45" y2="486.92"/><rect class="cls-2" x="309.92" y="415.46" width="134.9" height="8.01" transform="translate(-44.45 794.89) rotate(-89.73)"/><polygon class="cls-1" points="28.6 418.79 170.6 582.91 193.59 592.23 193.59 567.04 53.42 401.55 29 392.75 28.6 418.79"/><path class="cls-2" d="M198.21,598.18l-29.4-11.91-143.63-166,0.51-33.18L56.4,398.14,198.21,565.57v32.6Zm-24.6-18.62,16.59,6.72V568.51L51.67,405l-18.14-6.53-0.29,18.9Z" transform="translate(-0.61)"/><polygon class="cls-1" points="383.58 349.79 244.3 559.7 244.3 581.48 274.07 559.7 406.51 359.2 405.62 334.32 383.58 349.79"/><path class="cls-2" d="M240.9,589.37V558.49L381.27,346.94,410,326.8l1.2,33.54L277.63,562.5Zm8-28.47v12.68l22.82-16.69L403.07,358.07l-0.58-16.22-15.38,10.79Z" transform="translate(-0.61)"/><path class="cls-1" d="M222.28,80.17s-25.09-7-33.6-2.95-32.55,10.58-25.53,25.32c0,0-1.93,8.12,8.06,9.6S222.28,80.17,222.28,80.17Z" transform="translate(-0.61)"/><path class="cls-2" d="M171.91,116.2a8.76,8.76,0,0,1-1.29-.09c-4.43-.66-7.69-2.48-9.68-5.43a11.87,11.87,0,0,1-1.9-7.55,14.13,14.13,0,0,1-.22-10.67c3.41-8.76,15.07-13.48,23.57-16.92,1.82-.74,3.4-1.37,4.59-1.94,4.34-2,11.66-2.16,22.36-.36,7.45,1.26,13.75,3,14,3.07l7.47,2.07-6,4.9c-0.1.08-10.51,8.54-22,16.7C183.53,113.67,175.92,116.2,171.91,116.2Zm-4.86-12.76a4.07,4.07,0,0,0,.54,2.79c0.87,1.23,2.76,1.74,4.19,2,0.48,0.07,5.32.21,26.39-14.75,5.72-4.06,11.16-8.19,15.15-11.29-9-1.87-19.19-3.06-22.94-1.29-1.39.66-3.06,1.33-5,2.11-6.75,2.73-17,6.86-19.11,12.4-0.41,1-.8,2.76.49,5.46l0.64,1.35ZM221.21,84h0Z" transform="translate(-0.61)"/><path class="cls-1" d="M213.64,90.32s-15.41-17.6,19.2-62.55c41.08-53.35,79.29-.22,79.29-0.22s-30.47-12.39-52,22S274.3,104.27,213.64,90.32Z" transform="translate(-0.61)"/><path class="cls-2" d="M241.13,98.77c-6.19,0-15.11-1.49-28.38-4.54l-1.26-.29-0.85-1c-0.5-.57-4.9-5.94-4.37-17.25,0.67-14.13,8.54-31.08,23.41-50.38C242.62,8.52,256.77,0,271.75,0h0.65c24.87,0.41,42.26,24.2,43,25.21l8.12,11.29-12.88-5.24a36.3,36.3,0,0,0-16.31-1.58c-12.26,1.56-22.62,9-30.8,22-7.4,11.83-7.5,21.56-7.57,29.38-0.06,6.18-.11,11.52-4.42,14.92C249.22,97.84,246,98.77,241.13,98.77Zm-25-12c8.57,2,26.72,5.9,30.46,2.95,1.29-1,1.33-4.58,1.37-8.7,0.07-7.89.19-19.81,8.79-33.56,12-19.13,26.74-24.58,37-25.78a45.58,45.58,0,0,1,7.38-.26c-0.91-.84-1.89-1.7-2.93-2.55C292.27,14,283,8.18,272.23,8c-12.52-.19-24.72,7.28-36.21,22.2C219.27,52,215,66.62,214.33,75.08,213.84,81.42,215.25,85.15,216.11,86.78Z" transform="translate(-0.61)"/><path class="cls-1" d="M215,57.11S238.48,44,251.38,67.16" transform="translate(-0.61)"/><path class="cls-2" d="M247.88,69.11c-3.23-5.81-7.47-9.5-12.6-11-9.13-2.6-18.24,2.4-18.33,2.45l-3.91-7c0.49-.27,12.13-6.66,24.43-3.16,7.25,2.06,13.11,7,17.41,14.77Z" transform="translate(-0.61)"/><path class="cls-1" d="M235,25.1s29.59-5.84,32.64,14.63" transform="translate(-0.61)"/><path class="cls-2" d="M263.66,40.32a11.82,11.82,0,0,0-4.95-8.39c-6.76-4.76-18.86-3.71-23-2.9l-1.55-7.86a56.21,56.21,0,0,1,10.21-.85c7.87,0.06,14.23,1.76,18.91,5.06a19.7,19.7,0,0,1,8.26,13.76Z" transform="translate(-0.61)"/><path class="cls-1" d="M267.62,4s17.74,10.83,15.74,24.5" transform="translate(-0.61)"/><path class="cls-2" d="M287.33,29.08l-7.93-1.16C281,17.17,265.69,7.52,265.53,7.43l4.17-6.84C270.52,1.08,289.69,13,287.33,29.08Z" transform="translate(-0.61)"/><path class="cls-1" d="M85.24,186.27s-2.51,27,10,33.2c5.26,2.6,14-6.31,20-6.31s40.06,0,46.57,2.5,16.53,12,15.52,23.54-39.56,46.07-32.05,85.14c0,0,21.19,19,25.87,21.53s50.65,15.52,62.22,13,49.73-32.05,49.93-37.06,0-12,0-12-35.86-50.58,0-93.65,17.73-70.11,19.73-83.89-29-41.81-29-41.81-15.23-6.36-27-9c-38.78-8.72-52.8,18.19-52.8,18.19S181.9,105,170.88,105s-37.56,20.53-49.58,21.53-44.57-5.51-44.57,0,1.5,21,0,22.54-8,25.79-4,32.43C75,185.29,78.62,187.41,85.24,186.27Z" transform="translate(-0.61)"/><path class="cls-2" d="M229.8,363.19c-16.91,0-55.79-11.28-60.48-13.79-4.86-2.6-23.06-18.85-26.66-22.09l-1-.9-0.25-1.32c-5.5-28.62,11.92-54.37,23.44-71.4,4.1-6.05,8.33-12.31,8.55-14.84,0.85-9.77-8.18-17.61-13-19.45-2.81-1.08-16.15-2.24-45.14-2.24-1.61,0-4.48,1.54-7,2.91-4.68,2.52-10,5.37-14.8,3C87,219.86,83,212.45,81.57,201A77.1,77.1,0,0,1,81,190.56a13.76,13.76,0,0,1-11.75-7c-2.26-3.75-2.45-10.79-.57-20.94,0.63-3.38,1.46-6.91,2.34-9.92A23,23,0,0,1,73.25,147c0.35-2.17,0-9.31-.24-13.25-0.16-2.94-.29-5.48-0.29-7.24a5.3,5.3,0,0,1,1.77-4c3.33-3,10.49-2.69,27.27-1.1,7.35,0.69,14.95,1.41,19.2,1.06,5-.42,14.59-5.7,23-10.36,10.41-5.76,20.25-11.19,26.9-11.19,8.2,0,17.38-3.29,20.57-4.54a44,44,0,0,1,12.37-12.48c8.28-5.59,22.64-11.23,44.06-6.41,12,2.7,27.07,9,27.71,9.23L276.22,87l0.51,0.46a198.9,198.9,0,0,1,15.63,16.1c10.91,12.68,15.72,22.25,14.7,29.26-0.39,2.69.25,6.55,1,11,1.35,8.07,3,18.12.8,30.69-2.6,14.72-9.94,29.17-22.42,44.16a62.93,62.93,0,0,0-14.23,30.71,72,72,0,0,0,1.53,28.49,97.11,97.11,0,0,0,12.89,29.57l0.7,1,0,1.21c0,0.29.2,7.21,0,12.29-0.08,2.14-1.38,4.61-7.54,10.33-3.84,3.56-9.08,7.89-14.75,12.18-5.06,3.83-22.24,16.46-30.8,18.31A21.8,21.8,0,0,1,229.8,363.19ZM149,322.27c8.16,7.29,21.09,18.48,24.06,20.06,1.66,0.89,13.39,4.61,27.57,8,15.78,3.8,27.71,5.52,31.91,4.61s14.81-7.28,26.28-15.83c12.15-9.06,19.22-15.89,20.52-18,0.12-3.55,0-8,0-10.05a105.5,105.5,0,0,1-13.36-31,80.17,80.17,0,0,1-1.75-31.76,70.82,70.82,0,0,1,16-34.75c11.57-13.89,18.33-27.12,20.69-40.43,2-11.21.43-20.5-.82-28-0.86-5.14-1.6-9.57-1-13.5,0.3-2-.36-8.37-12.84-22.88a195.42,195.42,0,0,0-14.42-14.92c-3-1.21-15.75-6.29-25.74-8.54-15-3.36-27.69-1.6-37.82,5.24a34.71,34.71,0,0,0-10.55,10.9l-0.66,1.26-1.3.57c-0.53.23-13.2,5.68-24.92,5.68-4.58,0-14.38,5.42-23,10.19-10,5.54-19.48,10.77-26.23,11.33-5,.41-12.57-0.31-20.62-1.07-6.29-.59-16.32-1.54-20.23-1,0.05,1.41.14,3.12,0.24,4.9,0.64,12.14.64,16-1.09,18.14A74.24,74.24,0,0,0,76.42,165c-1.58,9.07-.92,13.3-0.27,14.36,1.15,1.91,2.85,3.87,8.41,2.92l5.15-.89-0.48,5.21c-0.58,6.3-.38,25.19,7.8,29.23,1.11,0.55,5.24-1.67,7.45-2.86,3.53-1.9,7.18-3.86,10.8-3.86,27.08,0,43.23.93,48,2.77,8,3.07,19.26,14,18.08,27.62-0.4,4.6-4.38,10.48-9.9,18.63C160.88,273.84,145,297.39,149,322.27ZM80,151.33h0Z" transform="translate(-0.61)"/><path class="cls-2" d="M85.92,190.22l-1.36-7.9a62.13,62.13,0,0,0,9.12-2.91c3.3-1.23,4.94-1.82,6.25-1.93s4.32-.6,7.46-1.11c11.46-1.88,15.71-2.38,18.09-1.61,3.18,0.38,22-2.09,28.77-4,4.73-1.35,13.12-.24,21.24.83,5,0.66,10.71,1.42,12.76,1.07,2.25-.37,9.74-3.7,15.75-6.36,16.35-7.25,18.76-7.83,21.23-7,3.4,1.13,9.8,6.53,12.39,8.8l-5.28,6a71.25,71.25,0,0,0-9.16-7c-2.62.59-10.56,4.12-15.94,6.5-9,4-14.65,6.44-17.68,6.94-3.23.54-8.74-.19-15.13-1s-14.85-2-18-1.07a155.41,155.41,0,0,1-17.79,3.25c-11.88,1.58-14.46,1.13-15.56.74-2-.18-10.07,1.14-14.42,1.85-3.38.55-6.31,1-8,1.18-0.64.13-2.7,0.9-4.21,1.46A66.77,66.77,0,0,1,85.92,190.22Zm14.69-4.75h0Zm123-18.44" transform="translate(-0.61)"/><path class="cls-2" d="M222.71,130.62a28.48,28.48,0,0,1-8.38-1.37,42,42,0,0,0-8.34-1.62c-3.9,1.65-7.69,2-11.22-.23-4.12-2.63-8.74-8-7.31-18.72a39.94,39.94,0,0,1,3.12-10.76l7.24,3.44a32.08,32.08,0,0,0-2.43,8.53c-0.66,5.23.55,8.74,3.7,10.75,2.44,1.55,8.87-3.17,14-7s10.21-7.5,15.64-9.42c7-2.49,13.13-1.21,18.08,3.78l0.39,0.4,0.27,0.49a12.52,12.52,0,0,1,.44,10.53c-1.93,4.44-6.46,7.59-13.48,9.38A48.11,48.11,0,0,1,222.71,130.62Zm-6.62-9.2,0.39,0.11c4.08,1.14,6.78,1.88,16-.46,4.32-1.1,7.19-2.78,8.08-4.74a4.32,4.32,0,0,0,.07-3.14c-2.58-2.32-5.37-2.73-9.21-1.38-4.31,1.52-9,5-13.56,8.32Z" transform="translate(-0.61)"/><path class="cls-1" d="M251.3,94.09s7.5-19.37,60-40.9C373.58,27.62,380,92.75,380,92.75s-20.15-26-56.05-7S297.38,147.84,251.3,94.09Z" transform="translate(-0.61)"/><path class="cls-2" d="M284.05,124.13c-8.71,0-19.12-8-35.79-27.44l-1.56-1.82,0.87-2.24c0.23-.59,2.48-6,11.38-13.92,11.53-10.3,28.63-20.14,50.82-29.24,19.91-8.17,36.63-8.34,49.67-.49C380.74,61.81,383.86,91.12,384,92.36l1.36,13.84-8.52-11a36.3,36.3,0,0,0-13.32-9.54c-11.39-4.8-24.07-3.58-37.69,3.62-11,5.83-17.67,14.32-23,21.15-5.68,7.26-10.58,13.52-18.43,13.7h-0.32ZM256.18,93.6c8.92,10.25,20.69,22.51,27.87,22.51h0.14c3.87-.09,7-3.9,12.3-10.63,5.81-7.42,13-16.66,25.58-23.29,20-10.55,35.46-7.86,45-3.75a45.47,45.47,0,0,1,6.51,3.48c-0.37-1.18-.78-2.41-1.25-3.68-2.68-7.18-7.81-16.89-17-22.41-10.75-6.45-25-6.09-42.46,1.06C272.68,73.36,259.7,88.4,256.18,93.6Z" transform="translate(-0.61)"/><path class="cls-2" d="M299.62,106.42c-9.31-2.53-21.32-8.26-25.61-21.26a29.51,29.51,0,0,1-.94-14.88l7.79,1.88L277,71.22l3.9,0.92A21.72,21.72,0,0,0,281.72,83c2.63,7.55,9.36,12.84,20,15.72Z" transform="translate(-0.61)"/><path class="cls-2" d="M316.17,93.17c-8.37-3-14.13-8-17.13-14.7-4.88-10.92-.37-22.38-0.18-22.86l7.44,3c0,0.09-3.43,8.89.08,16.67,2.09,4.63,6.3,8.12,12.52,10.38Z" transform="translate(-0.61)"/><path class="cls-2" d="M338.17,83.4c-6.14-5.52-9.37-11.77-9.59-18.57-0.36-11,7.42-19.08,7.75-19.42L342.08,51c-0.06.06-5.77,6.11-5.49,13.63,0.17,4.51,2.5,8.82,6.94,12.81Z" transform="translate(-0.61)"/><path class="cls-2" d="M233.43,200.59a4,4,0,0,1-1-7.88c4.52-1.19,7.9-3.42,11.48-5.79a42.83,42.83,0,0,1,10.74-5.67c2.69-.86,3.06-5.84,3.25-12.26a53.35,53.35,0,0,1,.62-8c-0.27-.58-2.08-3.6-12.68-9.23-6.5-3.45-12.83-6-12.89-6.06a4,4,0,0,1,3-7.42,163,163,0,0,1,15,7.15c11.74,6.43,16.51,11.64,15.46,16.88a46.11,46.11,0,0,0-.52,6.91c-0.22,7.18-.51,17-8.83,19.66a36.2,36.2,0,0,0-8.74,4.72c-3.78,2.5-8.07,5.33-13.86,6.85A4,4,0,0,1,233.43,200.59Zm25.11-39.49h0Z" transform="translate(-0.61)"/><path class="cls-2" d="M143.37,149.78c-5-9-7.21-11.46-14.39-13.06-4.1-.91-9.83,7.84-12,12.73l-7.33-3.23a51.58,51.58,0,0,1,5.34-9.05c3.45-4.6,9-9.77,15.72-8.27,10.88,2.42,14.68,8,19.66,17Z" transform="translate(-0.61)"/><path class="cls-4" d="M132.1,147.84" transform="translate(-0.61)"/><rect class="cls-2" x="124.67" y="145.59" width="7.84" height="8.01" transform="translate(-53.93 73.3) rotate(-26.57)"/><path class="cls-2" d="M106.4,204.55a7.06,7.06,0,0,1-1.94-.28c-8-2.29-17-15-18.74-17.56l6.62-4.51h0c3.43,5,9.76,12.46,13.7,14.15,0.53-.79,1.63-3,2.48-8.66a81.11,81.11,0,0,0,.79-8.35l8,0.26a88.34,88.34,0,0,1-.91,9.45c-1.16,7.53-3,12-6,14.15A6.84,6.84,0,0,1,106.4,204.55Z" transform="translate(-0.61)"/><path class="cls-2" d="M134.78,200.59c-4.59,0-8.44-3.89-11.44-11.57a67.49,67.49,0,0,1-3-10.07l7.86-1.57-3.93.79,3.93-.79a61,61,0,0,0,2.32,8.05c2,5.35,3.76,7,4.28,7.14,0.25-.07,2.6-1,6.52-8.55a85.36,85.36,0,0,0,4.11-9.4l7.55,2.68a92.45,92.45,0,0,1-4.66,10.63c-4.33,8.29-8.44,12.31-12.95,12.65Z" transform="translate(-0.61)"/><path class="cls-2" d="M168.91,200.83a5.27,5.27,0,0,1-3.07-1c-1.79-1.27-4-4-7.27-14.39-1.65-5.34-2.78-10.25-2.83-10.46l7.81-1.79c1.71,7.45,4.16,15,5.89,18.44,2.42-2.93,6.45-9.86,9.69-16.86l7.27,3.36c-0.09.2-2.3,5-5.13,10-5.62,10-8.65,11.91-10.88,12.5A5.75,5.75,0,0,1,168.91,200.83Zm1.63-7.46h0Z" transform="translate(-0.61)"/><path class="cls-2" d="M204.42,196.86h-0.22c-3.68-.14-6.74-3.38-10.24-10.81a93.78,93.78,0,0,1-3.56-8.8l7.59-2.57c1.78,5.24,4.34,10.67,6.1,13.12,2-3.75,5.1-13.34,7.18-22.87l7.83,1.71c-0.06.28-1.55,7.06-3.68,13.93a70.56,70.56,0,0,1-3.73,9.9C210.84,192.23,208.56,196.86,204.42,196.86ZM194.2,176l3.79-1.29h0Z" transform="translate(-0.61)"/><path class="cls-2" d="M193.84,353.3c-6.94-20.42,1.18-37.45,9-53.92,8.12-17,15.78-33.11,6.47-52.26-6-12.35-12.32-19.14-18.26-19.64s-10.38,5.62-10.42,5.68l-6.56-4.61c0.28-.4,7-9.89,17.56-9.06,9.07,0.72,17.44,8.84,24.88,24.13,11,22.62,2.13,41.22-6.44,59.21-7.49,15.72-14.57,30.56-8.68,47.89Z" transform="translate(-0.61)"/><path class="cls-2" d="M176.14,293.48a6.41,6.41,0,0,1-3.81-1.35c-3.85-2.85-7-10.6-8.75-16.9-3.3-12.18-1.21-17.85.32-20.15l6.66,4.45c-0.85,1.27-1.34,6,.79,13.75a39.58,39.58,0,0,0,4.74,11.24c2.67-2.06,8.34-5.19,21.84-10.56,9.58-3.81,18.72-7,18.82-7l2.62,7.57c-21.59,7.47-37,14.53-38.88,16.78A5.57,5.57,0,0,1,176.14,293.48Z" transform="translate(-0.61)"/><path class="cls-2" d="M161.65,333.46a6.59,6.59,0,0,1-3.93-1.43c-4.24-3.14-8.4-12.15-10.68-18.91-2.45-7.26-4.63-17-1.13-22.24l6.66,4.45c-0.44.66-.93,3.43,0.36,9.2,1.94,8.71,6.15,17,8.55,20,2.26-1.84,7.39-5.11,20.1-11,8.79-4.1,17.14-7.57,17.22-7.6l3.07,7.4c-15.42,6.4-33.55,15.12-35.94,18A5.55,5.55,0,0,1,161.65,333.46Z" transform="translate(-0.61)"/><polygon class="cls-1" points="123.69 313.95 136.16 283.24 142.52 325.44 170.6 307.28 170.6 350.44 188.07 332.65 204.09 355.2 229.33 329.98 247.37 350.44 250.77 321.3 282.75 325.9 282.91 293.92 305.32 297.93 300.17 338.66 275.92 366.76 207.4 374.72 140.51 362.75 123.69 313.95"/><polygon class="cls-5" points="203.56 362.05 187.58 339.54 166.59 360.9 166.59 315.31 139.47 332.86 134.38 298.57 127.42 316.1 119.97 313.14 137.94 267.91 145.57 319.37 174.6 300.58 174.6 341.31 188.57 327.1 204.61 349.68 229.51 324.8 244.43 341.72 247.26 317.42 278.25 321.87 273.69 276.64 358.22 315.92 354.85 323.19 283.07 289.84 287.25 331.26 254.27 326.52 250.31 360.5 229.14 336.5 203.56 362.05"/><line class="cls-1" x1="86.96" y1="328.31" x2="251.02" y2="391.37"/><rect class="cls-2" x="165.6" y="271.96" width="8.01" height="175.76" transform="translate(-227.74 389.05) rotate(-68.98)"/><line class="cls-1" x1="250.06" y1="328.06" x2="306.7" y2="349.9"/><rect class="cls-2" x="274.98" y="308.63" width="8.01" height="60.71" transform="translate(-138.28 477.33) rotate(-68.91)"/></svg>